<svg width="710" height="645" viewBox="0 0 710 645" fill="none" xmlns="http://www.w3.org/2000/svg">
<path d="M467.111 489.779C467.111 495.672 464.77 501.325 460.602 505.492C456.435 509.66 450.783 512.001 444.889 512.001H133.778C128.889 512.001 124.222 516.445 120.222 519.334L44.8889 578.668V223.112C44.8889 217.218 47.2302 211.566 51.3976 207.398C55.5651 203.231 61.2174 200.89 67.1111 200.89H152.889V156.445H67.1111C49.43 156.445 32.4731 163.469 19.9707 175.972C7.46825 188.474 0.444458 205.431 0.444458 223.112V623.112C0.477531 627.239 1.65928 631.275 3.85727 634.769C6.05525 638.262 9.18262 641.074 12.8889 642.89C16.4595 644.514 20.3964 645.163 24.2994 644.773C28.2025 644.383 31.9327 642.966 35.1111 640.668L149.556 556.445H448.222C456.645 556.694 465.028 555.211 472.855 552.089C480.681 548.966 487.782 544.269 493.719 538.291C499.657 532.312 504.303 525.177 507.371 517.33C510.439 509.482 511.863 501.088 511.556 492.668V467.556H467.111V489.779Z" fill="#00B4FF"/>
<path d="M644.889 0.888672H267.111C249.43 0.888672 232.473 7.91246 219.971 20.4149C207.468 32.9173 200.444 49.8742 200.444 67.5553V334.222C200.444 351.903 207.468 368.86 219.971 381.362C232.473 393.865 249.43 400.889 267.111 400.889H568.222L674.444 483.333C677.602 485.668 681.322 487.124 685.226 487.553C689.129 487.983 693.077 487.37 696.667 485.778C700.448 483.976 703.644 481.143 705.885 477.605C708.126 474.066 709.322 469.966 709.333 465.778V67.5553C709.343 50.2526 702.625 33.6239 690.599 21.1835C678.573 8.74302 662.182 1.46543 644.889 0.888672ZM667.111 421.778L589.333 361.111C585.454 358.1 580.688 356.459 575.778 356.444H267.111C261.217 356.444 255.565 354.103 251.398 349.935C247.23 345.768 244.889 340.116 244.889 334.222V67.5553C244.889 61.6616 247.23 56.0093 251.398 51.8419C255.565 47.6744 261.217 45.3331 267.111 45.3331H644.889C650.829 45.8722 656.367 48.5646 660.46 52.9032C664.553 57.2418 666.919 62.9272 667.111 68.8887V421.778Z" fill="#00B4FF"/>
</svg>
