<svg width="800" height="799" viewBox="0 0 800 799" fill="none" xmlns="http://www.w3.org/2000/svg">
<path d="M688.133 686.773L688.137 686.77C704.123 670.785 704.123 644.772 688.137 628.784C680.395 621.044 670.094 616.773 659.14 616.773C648.193 616.773 637.892 621.044 630.146 628.792C614.164 644.772 614.164 670.786 630.15 686.77C646.139 702.754 672.149 702.753 688.133 686.773ZM642.901 674.018C638.565 669.682 636.176 663.915 636.176 657.777C636.176 651.643 638.564 645.872 642.901 641.535C647.241 637.199 653.011 634.809 659.147 634.809C665.281 634.809 671.046 637.199 675.386 641.535C684.339 650.492 684.339 665.061 675.382 674.018C666.427 682.976 651.858 682.972 642.901 674.018Z" fill="#333333"/>
<path d="M759.684 175.985C759.693 175.973 759.705 175.965 759.715 175.956C759.734 175.936 759.752 175.915 759.772 175.895L762.243 173.423L762.181 173.361C798.932 133.925 798.125 71.9522 759.708 33.5369C740.688 14.5152 715.4 4.03906 688.5 4.03906C662.8 4.03906 638.583 13.622 619.884 31.0647L619.824 31.0045L617.349 33.4776C617.33 33.4983 617.308 33.5158 617.289 33.5365C617.279 33.5459 617.271 33.5567 617.261 33.5675L25.6337 625.193L25.8641 625.423C22.557 627.556 20.1612 631.058 19.5859 635.261L0.12905 777.378C-0.463287 781.711 1.00476 786.067 4.09488 789.159C6.73323 791.795 10.2953 793.249 13.9764 793.249C14.6061 793.249 15.2397 793.206 15.8734 793.121L157.985 773.658C162.191 773.085 165.693 770.687 167.826 767.38L168.056 767.611L759.684 175.985ZM688.5 31.9907C707.932 31.9907 726.202 39.5586 739.942 53.3005C764.931 78.2864 767.909 117.079 748.878 145.354L647.881 44.3611C659.785 36.3154 673.812 31.9907 688.5 31.9907ZM619.824 70.5331L722.714 173.423L168.056 728.081L129.347 689.375L574.576 244.153L547.922 217.503L102.699 662.73L65.1631 625.193L619.824 70.5331ZM30.3189 762.931L46.3421 645.898L147.347 746.904L30.3189 762.931Z" fill="#FD8380"/>
<path d="M223.485 356.4L248.988 330.897L44.9052 126.812L128.179 43.5363L167.664 83.0249L139.016 111.669L161.633 134.284L190.281 105.642L213.301 128.661L184.654 157.307L207.271 179.92L235.921 151.278L258.939 174.301L216.557 216.673L239.18 239.29L281.556 196.914L309.625 224.981L280.977 253.632L303.594 276.245L332.242 247.598L332.261 247.619L357.764 222.116L140.928 5.28321C133.886 -1.76107 122.47 -1.76107 115.428 5.28321L6.65159 114.061C-0.393139 121.104 -0.393139 132.521 6.65159 139.564L223.485 356.4Z" fill="#333333"/>
<path d="M794.717 658.995C794.391 658.668 794.053 658.355 793.71 658.059L566.798 431.15L498.916 499.033L521.486 521.604L563.866 479.224L756.427 671.782L673.149 755.055L458.02 539.928L432.517 565.434L660.397 793.31C667.439 800.356 678.855 800.356 685.899 793.31L794.682 684.537C794.691 684.522 794.703 684.513 794.717 684.498C801.761 677.459 801.761 666.037 794.717 658.995Z" fill="#333333"/>
</svg>
