<svg width="442" height="690" viewBox="0 0 442 690" fill="none" xmlns="http://www.w3.org/2000/svg">
<circle cx="35" cy="655" r="35" fill="#BE9ED4"/>
<circle cx="159" cy="655" r="35" fill="#8470A9"/>
<circle cx="283" cy="655" r="35" fill="#7275A0"/>
<circle cx="401" cy="655" r="35" fill="#629B8C"/>
<circle cx="282.999" cy="531" r="35" fill="#BE9ED4"/>
<circle cx="406.999" cy="531" r="35" fill="#86829A"/>
<circle cx="282.999" cy="407" r="35" fill="#8470A9"/>
<circle cx="159" cy="531.018" r="35" fill="#8470A9"/>
<circle cx="159" cy="407.006" r="35" fill="#8470A9"/>
<circle cx="41" cy="407.029" r="35" fill="#8470A9"/>
<circle cx="406.999" cy="407" r="35" fill="#639EA3"/>
<circle cx="159" cy="283.006" r="35" fill="#639EA3"/>
<circle cx="282.999" cy="283" r="35" fill="#7275A0"/>
<circle cx="406.999" cy="283" r="35" fill="#C4F8EC"/>
<circle cx="41" cy="159.029" r="35" fill="#C4F8EC"/>
<circle cx="159" cy="159.006" r="35" fill="#C4F8EC"/>
<circle cx="282.999" cy="159" r="35" fill="#629B8C"/>
<circle cx="406.999" cy="159" r="35" fill="#8EC4B7"/>
<circle cx="159" cy="35.0059" r="35" fill="#8EC4B7"/>
<circle cx="41" cy="35.0293" r="35" fill="#8EC4B7"/>
<circle cx="282.999" cy="35" r="35" fill="#4AA087"/>
<circle cx="35" cy="531.029" r="35" fill="#4AA087"/>
<circle cx="41" cy="283.029" r="35" fill="#4AA087"/>
<circle cx="406.999" cy="35" r="35" fill="#B7E9DD"/>
</svg>
