<svg width="566" height="442" viewBox="0 0 566 442" fill="none" xmlns="http://www.w3.org/2000/svg">
<circle cx="35" cy="283" r="35" fill="#BE9ED4"/>
<circle cx="35" cy="35" r="35" fill="#BE9ED4"/>
<circle cx="35" cy="407" r="35" fill="#86829A"/>
<circle cx="35" cy="159" r="35" fill="#86829A"/>
<circle cx="159" cy="283" r="35" fill="#8470A9"/>
<circle cx="159" cy="35" r="35" fill="#8470A9"/>
<circle cx="159" cy="407" r="35" fill="#639EA3"/>
<circle cx="159" cy="159" r="35" fill="#639EA3"/>
<circle cx="283" cy="283" r="35" fill="#7275A0"/>
<circle cx="283" cy="35" r="35" fill="#7275A0"/>
<circle cx="283" cy="407" r="35" fill="#C4F8EC"/>
<circle cx="283" cy="159" r="35" fill="#C4F8EC"/>
<circle cx="407" cy="283" r="35" fill="#629B8C"/>
<circle cx="407" cy="35" r="35" fill="#629B8C"/>
<circle cx="407" cy="407" r="35" fill="#8EC4B7"/>
<circle cx="407" cy="159" r="35" fill="#8EC4B7"/>
<circle cx="531" cy="283" r="35" fill="#4AA087"/>
<circle cx="531" cy="35" r="35" fill="#4AA087"/>
<circle cx="531" cy="407" r="35" fill="#B7E9DD"/>
<circle cx="531" cy="159" r="35" fill="#B7E9DD"/>
</svg>
