<svg width="800" height="852" viewBox="0 0 800 852" fill="none" xmlns="http://www.w3.org/2000/svg">
<path d="M181.859 0C161.574 0 145.129 20.0546 145.129 44.7928V134.379C145.129 159.117 161.574 179.171 181.859 179.171C202.144 179.171 218.589 159.117 218.589 134.379V44.7928C218.589 20.0546 202.144 0 181.859 0Z" fill="#EEA37A"/>
<path fill-rule="evenodd" clip-rule="evenodd" d="M436.364 851.065C544.473 851.065 634.218 754.209 651.527 627.1H654.545C734.876 627.1 800 546.881 800 447.929C800 348.977 734.876 268.758 654.545 268.758V223.965H0V582.308C0 730.738 97.6833 851.065 218.182 851.065H436.364ZM72.7273 313.551V582.308C72.7273 681.259 137.849 761.479 218.182 761.479H436.364C516.695 761.479 581.818 681.259 581.818 582.308V313.551H72.7273ZM727.273 447.929C727.273 497.407 694.713 537.515 654.545 537.515V358.343C694.713 358.343 727.273 398.451 727.273 447.929Z" fill="#EEA37A"/>
<path d="M291.153 44.7928C291.153 20.0546 307.397 0 327.436 0C347.474 0 363.718 20.0546 363.718 44.7928V134.379C363.718 159.117 347.474 179.171 327.436 179.171C307.397 179.171 291.153 159.117 291.153 134.379V44.7928Z" fill="#EEA37A"/>
<path d="M472.564 0C452.526 0 436.282 20.0546 436.282 44.7928V134.379C436.282 159.117 452.526 179.171 472.564 179.171C492.603 179.171 508.847 159.117 508.847 134.379V44.7928C508.847 20.0546 492.603 0 472.564 0Z" fill="#EEA37A"/>
</svg>
