<svg width="734" height="734" viewBox="0 0 734 734" fill="none" xmlns="http://www.w3.org/2000/svg">
<path d="M3.6832 582.596C6.50006 588.003 10.7461 592.534 15.9592 595.696C21.1723 598.858 27.1528 600.53 33.2499 600.529H140.55L167.583 708.629C169.173 714.973 172.593 720.709 177.418 725.123C182.243 729.537 188.26 732.434 194.719 733.454C201.179 734.474 207.796 733.571 213.746 730.858C219.696 728.145 224.717 723.741 228.183 718.196L366.583 496.763L504.983 718.196C508.449 723.741 513.47 728.145 519.42 730.858C525.371 733.571 531.987 734.474 538.447 733.454C544.907 732.434 550.924 729.537 555.749 725.123C560.574 720.709 563.994 714.973 565.583 708.629L592.617 600.529H699.917C706.011 600.526 711.988 598.852 717.197 595.689C722.407 592.526 726.649 587.995 729.464 582.59C732.278 577.184 733.557 571.11 733.161 565.029C732.765 558.947 730.709 553.091 727.217 548.096L577.15 333.863C594.131 298.295 601.825 259.006 599.516 219.66C597.206 180.315 584.968 142.196 563.942 108.859C542.917 75.5226 513.79 48.0551 479.279 29.0193C444.767 9.9836 405.996 0 366.583 0C327.17 0 288.399 9.9836 253.888 29.0193C219.377 48.0551 190.249 75.5226 169.224 108.859C148.199 142.196 135.96 180.315 133.651 219.66C131.341 259.006 139.036 298.295 156.017 333.863L6.01653 548.263C2.54153 553.232 0.487879 559.055 0.0767242 565.105C-0.334431 571.155 0.912484 577.202 3.6832 582.596ZM635.883 533.863H566.583C559.152 533.863 551.934 536.346 546.076 540.918C540.218 545.489 536.056 551.888 534.25 559.096L519.917 616.329L422.35 460.196C466.336 449.315 506.195 425.846 537.05 392.663L635.883 533.863ZM366.583 67.1959C399.547 67.1959 431.77 76.9707 459.178 95.2843C486.586 113.598 507.949 139.628 520.563 170.082C533.178 200.536 536.478 234.047 530.047 266.378C523.617 298.708 507.743 328.405 484.434 351.714C461.126 375.022 431.428 390.896 399.098 397.327C366.768 403.758 333.257 400.457 302.803 387.842C272.348 375.228 246.319 353.866 228.005 326.458C209.691 299.049 199.917 266.826 199.917 233.863C199.969 189.676 217.546 147.314 248.791 116.07C280.035 84.8253 322.397 67.2488 366.583 67.1959ZM196.117 392.663C226.971 425.846 266.831 449.315 310.817 460.196L213.25 616.329L198.917 559.096C197.111 551.888 192.948 545.489 187.09 540.918C181.232 536.346 174.014 533.863 166.583 533.863H97.2832L196.117 392.663ZM299.917 233.863C299.917 220.677 303.826 207.788 311.152 196.825C318.477 185.861 328.889 177.316 341.071 172.271C353.253 167.225 366.657 165.905 379.589 168.477C392.521 171.049 404.4 177.399 413.724 186.722C423.047 196.046 429.397 207.924 431.969 220.857C434.541 233.789 433.221 247.193 428.175 259.375C423.129 271.556 414.585 281.968 403.621 289.294C392.658 296.619 379.769 300.529 366.583 300.529C348.902 300.529 331.945 293.505 319.443 281.003C306.94 268.501 299.917 251.544 299.917 233.863Z" fill="#6E6FB2"/>
</svg>
