<svg width="824" height="824" viewBox="0 0 824 824" fill="none" xmlns="http://www.w3.org/2000/svg">
<path d="M461.7 78.975C444.586 78.975 430.7 92.8613 430.7 109.975C430.7 127.089 444.586 140.975 461.7 140.975C635.133 140.975 756 267.408 756 441.15C756 614.761 614.761 756 441.15 756C267.501 756 140.95 630.823 140.95 457.275C140.95 440.161 127.064 426.275 109.95 426.275C92.8363 426.275 78.95 440.161 78.95 457.275C78.95 665.122 233.395 818 441.15 818C648.938 818 818 648.964 818 441.15C818 233.519 669.595 78.975 461.7 78.975ZM393.2 362.2V37C393.2 19.8863 379.314 6 362.2 6C164.161 6 6 164.161 6 362.2C6 379.314 19.8863 393.2 37 393.2H362.2C379.314 393.2 393.2 379.314 393.2 362.2ZM331.2 331.2H69.6069C84.0082 192.138 192.16 84.0081 331.2 69.607V331.2Z" fill="#72A7BF" stroke="#72A7BF" stroke-width="12"/>
</svg>
