<svg width="800" height="694" viewBox="0 0 800 694" fill="none" xmlns="http://www.w3.org/2000/svg">
<path d="M471.437 346.024C471.437 307.773 439.456 276.76 400 276.76C360.549 276.76 328.562 307.773 328.562 346.024C328.562 384.28 360.549 415.29 400 415.29C439.456 415.29 471.437 384.28 471.437 346.024Z" fill="#53C1DE"/>
<path fill-rule="evenodd" clip-rule="evenodd" d="M632.011 217.432C647.096 157.994 666.059 47.7728 599.211 10.4042C532.675 -26.8014 446.091 44.4914 400.371 87.2848C354.784 44.9178 265.768 -26.0702 198.977 11.417C132.467 48.7474 152.977 157.141 168.397 216.952C106.355 234.037 0 270.837 0 346.024C0 420.997 106.244 461.035 167.919 478.104C152.442 538.245 132.959 645.091 199.554 682.339C266.595 719.819 355.333 650.52 401.477 607.259C447.491 650.304 533.243 720.056 599.792 682.704C666.549 645.235 649.163 536.491 633.741 476.333C693.528 459.227 800 420.061 800 346.024C800 271.56 693.075 234.461 632.011 217.432ZM624.432 444.453C614.307 413.376 600.64 380.328 583.923 346.189C599.88 312.856 613.016 280.235 622.859 249.357C667.624 261.941 765.827 290.701 765.827 346.024C765.827 401.867 671.589 430.899 624.432 444.453ZM582.667 654.027C533.013 681.893 459.256 615.189 425.275 583.491C447.819 559.584 470.347 531.792 492.333 500.931C531.011 497.605 567.547 492.165 600.683 484.739C611.536 527.291 632.539 626.035 582.667 654.027ZM216.63 653.629C166.971 625.867 189.669 530.523 201.055 486.221C233.822 493.251 270.096 498.307 308.864 501.355C330.995 531.552 354.176 559.309 377.536 583.619C348.675 610.688 266.52 681.52 216.63 653.629ZM34.1731 346.024C34.1731 289.973 131.789 261.421 177.574 248.869C187.587 280.44 200.719 313.451 216.566 346.832C200.513 380.709 187.194 414.243 177.089 446.187C133.432 434.069 34.1731 402.109 34.1731 346.024ZM216.099 40.0944C265.96 12.1109 343.325 80.2621 376.424 110.937C353.184 135.134 330.216 162.683 308.275 192.707C270.651 196.088 234.633 201.517 201.522 208.792C189.1 160.552 166.291 68.0477 216.099 40.0944ZM516.781 228.723C542.307 231.845 566.763 236 589.725 241.083C582.832 262.507 574.24 284.909 564.12 307.875C549.451 280.888 533.704 254.443 516.781 228.723ZM400.381 134.616C416.144 151.173 431.931 169.661 447.461 189.72C415.96 188.275 384.408 188.269 352.907 189.699C368.451 169.826 384.373 151.365 400.381 134.616ZM236.173 307.851C226.221 284.965 217.706 262.464 210.753 240.733C233.578 235.781 257.92 231.733 283.28 228.661C266.309 254.325 250.589 280.76 236.173 307.851ZM284.008 465.752C257.811 462.917 233.1 459.075 210.282 454.259C217.345 432.147 226.047 409.16 236.212 385.781C250.827 413.155 266.787 439.845 284.008 465.752ZM401.328 559.773C385.131 542.827 368.973 524.083 353.195 503.923C384.875 505.128 416.616 505.131 448.293 503.76C432.715 524.288 416.984 543.059 401.328 559.773ZM564.445 384.592C575.139 408.224 584.152 431.085 591.312 452.824C568.115 457.957 543.072 462.091 516.685 465.16C533.733 438.952 549.731 412.096 564.445 384.592ZM473.261 469.176C424.803 472.533 376.043 472.496 327.568 469.451C300.024 430.44 275.504 389.413 254.339 346.821C275.403 304.317 299.744 263.371 327.157 224.421C375.667 220.867 424.475 220.856 472.984 224.443C500.163 263.389 524.467 304.229 546.019 346.349C524.723 388.832 500.253 429.861 473.261 469.176ZM582.141 39.1093C632.016 67.001 609.816 166.06 598.92 209.136C565.731 201.709 529.688 196.184 491.955 192.749C469.971 162.401 447.195 134.805 424.331 110.92C457.853 79.5842 532.749 11.4904 582.141 39.1093Z" fill="#53C1DE"/>
</svg>
