<svg width="735" height="735" viewBox="0 0 735 735" fill="none" xmlns="http://www.w3.org/2000/svg">
<path d="M243.634 483.1L247.046 485.629L243.634 483.101C233.933 496.19 236.677 514.665 249.767 524.365C282.913 548.935 323.483 563.5 367.333 563.5C411.184 563.5 451.754 548.935 484.899 524.366C497.99 514.665 500.735 496.19 491.032 483.1C481.332 470.01 462.857 467.265 449.767 476.968C426.219 494.419 397.846 504.5 367.333 504.5C336.82 504.5 308.447 494.419 284.9 476.968C271.811 467.265 253.336 470.011 243.634 483.1ZM63.5 367.333C63.5 199.531 199.531 63.5 367.333 63.5C535.135 63.5 671.167 199.531 671.167 367.333C671.167 535.135 535.135 671.167 367.333 671.167C199.531 671.167 63.5 535.135 63.5 367.333ZM367.333 4.5C166.946 4.5 4.5 166.946 4.5 367.333C4.5 567.722 166.946 730.167 367.333 730.167C567.722 730.167 730.167 567.722 730.167 367.333C730.167 166.946 567.722 4.5 367.333 4.5Z" fill="#6BAFA4" stroke="#6BAFA4" stroke-width="9"/>
<path d="M467.333 371.834C478.511 371.834 488.08 365.038 494.648 355.185C501.237 345.301 505.167 331.905 505.167 317.334C505.167 302.762 501.237 289.367 494.648 279.482C488.08 269.63 478.511 262.834 467.333 262.834C456.156 262.834 446.587 269.63 440.019 279.482C433.429 289.367 429.5 302.762 429.5 317.334C429.5 331.905 433.429 345.301 440.019 355.185C446.587 365.038 456.156 371.834 467.333 371.834Z" fill="#6BAFA4" stroke="#6BAFA4" stroke-width="9"/>
<path d="M267.333 371.834C278.511 371.834 288.08 365.038 294.648 355.185C301.237 345.301 305.167 331.905 305.167 317.334C305.167 302.762 301.237 289.367 294.648 279.482C288.079 269.63 278.511 262.834 267.333 262.834C256.156 262.834 246.588 269.63 240.019 279.482C233.43 289.367 229.5 302.762 229.5 317.334C229.5 331.905 233.43 345.301 240.019 355.185C246.588 365.038 256.156 371.834 267.333 371.834Z" fill="#6BAFA4" stroke="#6BAFA4" stroke-width="9"/>
</svg>
